<?xml version="1.0" standalone="no"?>
<!DOCTYPE svg PUBLIC "-//W3C//DTD SVG 20010904//EN" "http://www.w3.org/TR/2001/REC-SVG-20010904/DTD/svg10.dtd">
<svg version="1.0" xmlns="http://www.w3.org/2000/svg" width="512.000000pt" height="512.000000pt"
    viewBox="0 0 512.000000 512.000000" preserveAspectRatio="xMidYMid meet">

    <g transform="translate(0.000000,512.000000) scale(0.100000,-0.100000)" fill="#ffffff" stroke="none">
        <path d="M415 5110 c-22 -5 -60 -16 -85 -25 -150 -53 -285 -212 -319 -373 -8
-38 -11 -659 -11 -2155 0 -2299 -4 -2151 57 -2277 58 -121 214 -240 351 -269
75 -16 4229 -16 4304 0 189 39 358 208 397 397 16 75 16 4229 0 4304 -35 167
-166 316 -335 380 l-59 23 -2130 1 c-1172 1 -2148 -2 -2170 -6z m1627 -1259
c134 -18 258 -103 313 -215 38 -78 46 -178 43 -526 l-3 -315 -812 -3 -813 -2
0 -225 0 -225 34 -38 34 -37 781 -3 781 -2 0 -129 0 -128 -31 -7 c-50 -10
-1465 -7 -1563 4 -177 18 -302 119 -350 281 -24 79 -24 1209 0 1290 44 150
170 258 326 278 85 11 1176 13 1260 2z m2382 -18 c109 -41 206 -139 243 -245
17 -49 18 -97 18 -668 l0 -615 -23 -58 c-53 -130 -189 -231 -334 -248 -40 -4
-342 -8 -670 -9 l-598 0 0 -365 0 -365 -165 0 -165 0 0 1294 c0 1026 3 1295
13 1300 6 3 374 4 817 3 l805 -2 59 -22z" />
        <path d="M809 3551 l-39 -39 0 -226 0 -226 645 0 645 0 0 220 c0 178 -3 227
-15 250 -32 61 -19 60 -636 60 l-561 0 -39 -39z" />
        <path d="M3134 3580 c-11 -4 -33 -22 -47 -40 l-27 -32 0 -582 c0 -576 0 -584
21 -610 45 -57 30 -56 631 -56 537 0 554 1 586 20 63 38 62 31 62 650 0 619 2
601 -63 640 -31 19 -54 20 -587 19 -305 0 -564 -4 -576 -9z" />
    </g>
</svg>