<svg xmlns="http://www.w3.org/2000/svg" viewBox="0 0 24.00 24.00" data-guides="{&quot;vertical&quot;:[],&quot;horizontal&quot;:[]}"><defs/><path fill="#f6339a" stroke="#f6339a" fill-opacity="1" stroke-width="1.5" stroke-opacity="1" id="tSvg6563e6b4d1" title="Path 1" d="M39.4228 22C34.3065 22 29.1901 22 24.0738 22C26.8691 18.5057 29.6645 15.0113 32.4598 11.517C29.6398 8.3447 26.8198 5.1723 23.9998 2C29.2045 2 34.4091 2 39.6138 2C39.6138 3 39.6138 4 39.6138 5C39.2805 5 38.9471 5 38.6138 5C38.6138 4.3333 38.6138 3.6667 38.6138 3C34.4848 3 30.3558 3 26.2268 3C28.7405 5.8277 31.2541 8.6553 33.7678 11.483C31.2298 14.6553 28.6918 17.8277 26.1538 21C30.3705 21 34.5871 21 38.8038 21C39.1105 20.3873 39.4171 19.7747 39.7238 19.162C40.0218 19.311 40.3198 19.46 40.6178 19.609C40.2195 20.406 39.8211 21.203 39.4228 22Z"/></svg>